<svg xmlns="http://www.w3.org/2000/svg" xmlns:xlink="http://www.w3.org/1999/xlink" width="500" zoomAndPan="magnify" viewBox="0 0 375 374.999991" height="500" preserveAspectRatio="xMidYMid meet" version="1.0"><defs><clipPath id="ebd249d723"><path d="M 224 147 L 239.375 147 L 239.375 152 L 224 152 Z M 224 147 " clip-rule="nonzero"/></clipPath><clipPath id="0735430876"><path d="M 175 93.472656 L 181 93.472656 L 181 109 L 175 109 Z M 175 93.472656 " clip-rule="nonzero"/></clipPath><clipPath id="7813e59c39"><path d="M 196 93.472656 L 202 93.472656 L 202 109 L 196 109 Z M 196 93.472656 " clip-rule="nonzero"/></clipPath><clipPath id="1b5ae0ba55"><path d="M 155.113281 114 L 219.613281 114 L 219.613281 185 L 155.113281 185 Z M 155.113281 114 " clip-rule="nonzero"/></clipPath><clipPath id="03bdbcbce5"><path d="M 177 193 L 197 193 L 197 201.84375 L 177 201.84375 Z M 177 193 " clip-rule="nonzero"/></clipPath><clipPath id="00d72b0eab"><path d="M 166 123.429688 L 189 123.429688 L 189 170.679688 L 166 170.679688 Z M 166 123.429688 " clip-rule="nonzero"/></clipPath><clipPath id="44b7c42e1c"><path d="M 187 123.429688 L 209 123.429688 L 209 170.679688 L 187 170.679688 Z M 187 123.429688 " clip-rule="nonzero"/></clipPath></defs><g clip-path="url(#ebd249d723)"><path fill="#3c3c3b" d="M 238.253906 151.359375 L 238.128906 151.359375 L 225.09375 149.707031 C 224.828125 149.671875 224.617188 149.550781 224.453125 149.339844 C 224.289062 149.128906 224.226562 148.894531 224.261719 148.628906 C 224.292969 148.367188 224.417969 148.15625 224.628906 147.992188 C 224.839844 147.832031 225.078125 147.769531 225.34375 147.800781 L 238.367188 149.496094 C 238.632812 149.511719 238.851562 149.621094 239.027344 149.820312 C 239.199219 150.015625 239.28125 150.246094 239.261719 150.507812 C 239.246094 150.773438 239.136719 150.992188 238.9375 151.164062 C 238.738281 151.339844 238.507812 151.417969 238.242188 151.398438 Z M 238.253906 151.359375 " fill-opacity="1" fill-rule="nonzero"/></g><path fill="#3c3c3b" d="M 137.046875 150.417969 C 136.78125 150.433594 136.550781 150.351562 136.351562 150.175781 C 136.15625 150 136.050781 149.78125 136.035156 149.519531 C 136.019531 149.257812 136.101562 149.027344 136.277344 148.832031 C 136.457031 148.636719 136.675781 148.53125 136.941406 148.515625 L 150.003906 147.070312 C 150.269531 147.039062 150.503906 147.109375 150.710938 147.273438 C 150.917969 147.441406 151.035156 147.652344 151.066406 147.917969 C 151.09375 148.179688 151.027344 148.414062 150.859375 148.621094 C 150.695312 148.828125 150.480469 148.945312 150.214844 148.972656 L 137.152344 150.417969 Z M 137.046875 150.417969 " fill-opacity="1" fill-rule="nonzero"/><path fill="#3c3c3b" d="M 152.492188 131.121094 C 152.371094 131.117188 152.253906 131.097656 152.136719 131.054688 L 139.917969 126.308594 C 139.792969 126.265625 139.683594 126.203125 139.585938 126.113281 C 139.488281 126.027344 139.414062 125.925781 139.359375 125.808594 C 139.304688 125.691406 139.273438 125.566406 139.269531 125.4375 C 139.265625 125.308594 139.289062 125.179688 139.335938 125.0625 C 139.382812 124.941406 139.453125 124.832031 139.546875 124.742188 C 139.636719 124.648438 139.742188 124.578125 139.863281 124.527344 C 139.984375 124.480469 140.109375 124.457031 140.242188 124.457031 C 140.371094 124.457031 140.496094 124.484375 140.613281 124.539062 L 152.855469 129.296875 C 153.074219 129.375 153.242188 129.515625 153.359375 129.71875 C 153.476562 129.917969 153.511719 130.136719 153.472656 130.363281 C 153.429688 130.59375 153.316406 130.78125 153.132812 130.929688 C 152.953125 131.074219 152.746094 131.144531 152.511719 131.140625 Z M 152.492188 131.121094 " fill-opacity="1" fill-rule="nonzero"/><path fill="#3c3c3b" d="M 162.886719 116.402344 C 162.589844 116.402344 162.347656 116.292969 162.160156 116.070312 L 153.542969 106.210938 C 153.375 106.011719 153.300781 105.777344 153.324219 105.515625 C 153.347656 105.253906 153.460938 105.035156 153.664062 104.867188 C 153.867188 104.695312 154.101562 104.625 154.367188 104.648438 C 154.628906 104.671875 154.847656 104.78125 155.019531 104.984375 L 163.632812 114.84375 C 163.804688 115.042969 163.882812 115.269531 163.863281 115.535156 C 163.84375 115.796875 163.734375 116.011719 163.535156 116.183594 C 163.347656 116.339844 163.128906 116.414062 162.886719 116.402344 Z M 162.886719 116.402344 " fill-opacity="1" fill-rule="nonzero"/><g clip-path="url(#0735430876)"><path fill="#3c3c3b" d="M 179.019531 108.183594 C 178.792969 108.1875 178.589844 108.121094 178.410156 107.984375 C 178.230469 107.847656 178.117188 107.667969 178.0625 107.449219 L 175.070312 94.738281 C 175.007812 94.476562 175.050781 94.230469 175.195312 94 C 175.335938 93.773438 175.542969 93.628906 175.804688 93.566406 C 176.070312 93.507812 176.316406 93.546875 176.546875 93.691406 C 176.777344 93.835938 176.921875 94.039062 176.984375 94.300781 L 180.007812 107.011719 C 180.039062 107.136719 180.042969 107.261719 180.023438 107.386719 C 180 107.511719 179.957031 107.628906 179.890625 107.738281 C 179.824219 107.84375 179.738281 107.9375 179.632812 108.011719 C 179.527344 108.082031 179.414062 108.136719 179.289062 108.164062 C 179.199219 108.183594 179.113281 108.191406 179.019531 108.183594 Z M 179.019531 108.183594 " fill-opacity="1" fill-rule="nonzero"/></g><g clip-path="url(#7813e59c39)"><path fill="#3c3c3b" d="M 197.136719 108.371094 C 197.058594 108.382812 196.980469 108.382812 196.898438 108.371094 C 196.644531 108.308594 196.449219 108.164062 196.316406 107.9375 C 196.183594 107.714844 196.144531 107.476562 196.210938 107.222656 L 199.453125 94.519531 C 199.519531 94.265625 199.667969 94.070312 199.894531 93.9375 C 200.125 93.800781 200.367188 93.769531 200.621094 93.832031 C 200.878906 93.898438 201.074219 94.046875 201.207031 94.273438 C 201.34375 94.5 201.378906 94.738281 201.3125 94.996094 L 198.066406 107.648438 C 198.015625 107.863281 197.902344 108.035156 197.726562 108.171875 C 197.554688 108.304688 197.359375 108.371094 197.136719 108.371094 Z M 197.136719 108.371094 " fill-opacity="1" fill-rule="nonzero"/></g><path fill="#3c3c3b" d="M 213.074219 116.878906 C 212.882812 116.878906 212.707031 116.832031 212.550781 116.726562 C 212.390625 116.625 212.269531 116.488281 212.191406 116.316406 C 212.113281 116.144531 212.089844 115.964844 212.121094 115.78125 C 212.148438 115.59375 212.226562 115.429688 212.355469 115.289062 L 221.167969 105.59375 C 221.347656 105.398438 221.574219 105.292969 221.839844 105.28125 C 222.105469 105.269531 222.335938 105.351562 222.535156 105.53125 C 222.730469 105.710938 222.835938 105.933594 222.847656 106.195312 C 222.859375 106.460938 222.777344 106.691406 222.597656 106.886719 L 213.78125 116.566406 C 213.59375 116.773438 213.355469 116.878906 213.074219 116.878906 Z M 213.074219 116.878906 " fill-opacity="1" fill-rule="nonzero"/><path fill="#3c3c3b" d="M 223.179688 131.789062 C 222.949219 131.789062 222.742188 131.714844 222.566406 131.566406 C 222.386719 131.417969 222.277344 131.230469 222.238281 131 C 222.199219 130.773438 222.234375 130.5625 222.351562 130.359375 C 222.46875 130.160156 222.636719 130.023438 222.855469 129.941406 L 235.179688 125.421875 C 235.421875 125.355469 235.652344 125.378906 235.875 125.492188 C 236.09375 125.605469 236.25 125.777344 236.335938 126.011719 C 236.421875 126.242188 236.417969 126.472656 236.320312 126.703125 C 236.226562 126.929688 236.066406 127.097656 235.839844 127.203125 L 223.554688 131.730469 C 223.433594 131.777344 223.308594 131.792969 223.179688 131.789062 Z M 223.179688 131.789062 " fill-opacity="1" fill-rule="nonzero"/><g clip-path="url(#1b5ae0ba55)"><path fill="#fec625" d="M 200.6875 180.691406 C 200.691406 179.671875 200.816406 178.671875 201.0625 177.679688 C 201.308594 176.691406 201.667969 175.746094 202.140625 174.84375 C 202.613281 173.945312 203.1875 173.109375 203.863281 172.347656 C 204.535156 171.582031 205.292969 170.910156 206.128906 170.328125 C 207.210938 169.574219 208.242188 168.753906 209.222656 167.863281 C 210.199219 166.972656 211.113281 166.027344 211.96875 165.015625 C 212.820312 164.007812 213.605469 162.949219 214.320312 161.835938 C 215.035156 160.726562 215.675781 159.570312 216.238281 158.378906 C 216.800781 157.183594 217.285156 155.957031 217.6875 154.695312 C 218.09375 153.4375 218.410156 152.160156 218.648438 150.859375 C 218.882812 149.558594 219.035156 148.25 219.097656 146.929688 C 219.164062 145.609375 219.140625 144.289062 219.03125 142.972656 C 217.734375 127.9375 205.023438 115.902344 189.410156 114.867188 C 170.742188 113.617188 155.113281 127.839844 155.113281 145.5625 C 155.125 148.007812 155.429688 150.417969 156.027344 152.792969 C 156.621094 155.164062 157.492188 157.433594 158.636719 159.59375 C 159.78125 161.757812 161.164062 163.753906 162.789062 165.582031 C 164.417969 167.410156 166.238281 169.015625 168.253906 170.40625 C 169.074219 170.988281 169.820312 171.65625 170.480469 172.417969 C 171.144531 173.175781 171.707031 174.003906 172.167969 174.898438 C 172.632812 175.792969 172.984375 176.730469 173.222656 177.710938 C 173.457031 178.691406 173.578125 179.683594 173.574219 180.691406 L 173.574219 184.933594 L 200.6875 184.933594 Z M 200.6875 180.691406 " fill-opacity="1" fill-rule="nonzero"/></g><path fill="#fec625" d="M 212.75 154.042969 C 212.554688 154.042969 212.363281 154.019531 212.175781 153.972656 C 211.890625 153.898438 211.636719 153.769531 211.402344 153.589844 C 211.171875 153.414062 210.984375 153.195312 210.835938 152.941406 C 210.691406 152.6875 210.601562 152.417969 210.5625 152.125 C 210.523438 151.835938 210.542969 151.550781 210.621094 151.269531 C 210.738281 150.800781 210.855469 150.289062 210.941406 149.859375 C 211 149.574219 211.109375 149.308594 211.269531 149.0625 C 211.433594 148.820312 211.636719 148.617188 211.878906 148.453125 C 212.121094 148.289062 212.386719 148.175781 212.675781 148.121094 C 212.960938 148.0625 213.25 148.0625 213.535156 148.117188 C 213.824219 148.171875 214.089844 148.28125 214.335938 148.445312 C 214.578125 148.605469 214.78125 148.808594 214.945312 149.054688 C 215.109375 149.296875 215.21875 149.5625 215.277344 149.847656 C 215.335938 150.136719 215.335938 150.421875 215.28125 150.710938 C 215.164062 151.289062 215.035156 151.84375 214.878906 152.410156 C 214.75 152.894531 214.488281 153.285156 214.09375 153.589844 C 213.695312 153.890625 213.25 154.042969 212.75 154.042969 Z M 212.75 154.042969 " fill-opacity="1" fill-rule="nonzero"/><path fill="#fec625" d="M 193.875 119.820312 C 196.648438 120.414062 199.277344 121.394531 201.753906 122.769531 C 204.234375 124.144531 206.460938 125.851562 208.433594 127.890625 C 210.449219 129.976562 212.078125 132.328125 213.320312 134.953125 C 214.5625 137.574219 215.347656 140.324219 215.679688 143.207031 C 215.714844 143.5 215.6875 143.785156 215.605469 144.066406 C 215.523438 144.347656 215.390625 144.605469 215.207031 144.832031 C 215.023438 145.0625 214.800781 145.246094 214.546875 145.386719 C 214.289062 145.527344 214.015625 145.613281 213.722656 145.644531 C 213.429688 145.675781 213.144531 145.652344 212.863281 145.570312 C 212.582031 145.488281 212.328125 145.355469 212.097656 145.171875 C 211.871094 144.988281 211.683594 144.765625 211.542969 144.511719 C 211.402344 144.253906 211.316406 143.976562 211.285156 143.6875 C 211.28125 143.644531 211.28125 143.601562 211.285156 143.558594 C 211.132812 141.097656 210.585938 138.722656 209.648438 136.4375 C 208.710938 134.15625 207.429688 132.085938 205.804688 130.226562 C 204.152344 128.3125 202.257812 126.679688 200.117188 125.332031 C 197.980469 123.984375 195.691406 122.976562 193.25 122.3125 C 193.097656 122.261719 192.957031 122.183594 192.828125 122.082031 C 192.703125 121.976562 192.601562 121.855469 192.519531 121.714844 C 192.441406 121.570312 192.386719 121.417969 192.367188 121.257812 C 192.34375 121.097656 192.351562 120.9375 192.386719 120.777344 C 192.425781 120.617188 192.492188 120.472656 192.582031 120.335938 C 192.675781 120.203125 192.789062 120.089844 192.925781 120 C 193.058594 119.910156 193.207031 119.84375 193.367188 119.808594 C 193.527344 119.773438 193.6875 119.765625 193.847656 119.792969 Z M 193.875 119.820312 " fill-opacity="1" fill-rule="nonzero"/><path fill="#3c3c3b" d="M 173.574219 184.933594 L 173.574219 191.878906 C 173.582031 192.179688 173.617188 192.480469 173.683594 192.777344 C 173.75 193.074219 173.84375 193.359375 173.964844 193.636719 C 174.085938 193.914062 174.234375 194.175781 174.40625 194.425781 C 174.582031 194.675781 174.777344 194.902344 174.996094 195.113281 C 175.214844 195.324219 175.449219 195.511719 175.707031 195.671875 C 175.960938 195.835938 176.230469 195.972656 176.511719 196.085938 C 176.792969 196.195312 177.085938 196.277344 177.382812 196.332031 C 177.679688 196.382812 177.980469 196.40625 178.285156 196.402344 L 195.976562 196.402344 C 196.28125 196.40625 196.582031 196.382812 196.878906 196.328125 C 197.175781 196.277344 197.46875 196.195312 197.75 196.085938 C 198.03125 195.972656 198.300781 195.835938 198.554688 195.671875 C 198.8125 195.511719 199.046875 195.324219 199.265625 195.113281 C 199.484375 194.902344 199.679688 194.675781 199.855469 194.425781 C 200.027344 194.175781 200.175781 193.914062 200.296875 193.636719 C 200.417969 193.359375 200.511719 193.074219 200.578125 192.777344 C 200.644531 192.480469 200.679688 192.179688 200.6875 191.878906 L 200.6875 184.933594 Z M 173.574219 184.933594 " fill-opacity="1" fill-rule="nonzero"/><g clip-path="url(#03bdbcbce5)"><path fill="#3c3c3b" d="M 177.582031 193.15625 C 177.59375 193.699219 177.65625 194.234375 177.773438 194.761719 C 177.886719 195.292969 178.054688 195.804688 178.273438 196.300781 C 178.488281 196.796875 178.753906 197.265625 179.0625 197.710938 C 179.371094 198.15625 179.722656 198.566406 180.113281 198.941406 C 180.503906 199.316406 180.925781 199.648438 181.382812 199.941406 C 181.839844 200.230469 182.320312 200.476562 182.824219 200.671875 C 183.328125 200.871094 183.847656 201.015625 184.382812 201.109375 C 184.914062 201.207031 185.453125 201.25 185.992188 201.238281 L 188.269531 201.238281 C 188.808594 201.246094 189.347656 201.203125 189.878906 201.109375 C 190.410156 201.015625 190.929688 200.867188 191.433594 200.671875 C 191.9375 200.472656 192.417969 200.230469 192.875 199.9375 C 193.328125 199.644531 193.753906 199.3125 194.140625 198.9375 C 194.53125 198.5625 194.882812 198.152344 195.191406 197.707031 C 195.5 197.265625 195.765625 196.792969 195.980469 196.296875 C 196.199219 195.804688 196.363281 195.289062 196.480469 194.761719 C 196.597656 194.234375 196.660156 193.699219 196.671875 193.15625 Z M 177.582031 193.15625 " fill-opacity="1" fill-rule="nonzero"/></g><path fill="#ffffff" d="M 206.910156 154.429688 C 206.792969 153.742188 206.597656 153.335938 206.625 153.304688 C 211.285156 147.046875 204.679688 143.023438 204.679688 143.023438 C 205.078125 142.683594 205.414062 142.292969 205.691406 141.847656 C 205.964844 141.402344 206.167969 140.925781 206.296875 140.417969 C 206.421875 139.914062 206.46875 139.398438 206.433594 138.875 C 206.398438 138.351562 206.289062 137.847656 206.097656 137.363281 C 204.269531 132.644531 200.433594 134.140625 200.433594 134.140625 C 200.433594 134.140625 202.371094 129.171875 197.882812 126.066406 C 197.300781 125.660156 196.679688 125.324219 196.019531 125.054688 C 195.785156 124.96875 195.550781 124.894531 195.308594 124.832031 C 195.066406 124.773438 194.824219 124.726562 194.574219 124.695312 C 194.328125 124.667969 194.082031 124.652344 193.832031 124.652344 C 193.582031 124.648438 193.335938 124.664062 193.089844 124.695312 C 192.839844 124.722656 192.597656 124.769531 192.355469 124.828125 C 192.113281 124.886719 191.875 124.960938 191.644531 125.046875 C 191.410156 125.136719 191.183594 125.238281 190.964844 125.351562 C 190.742188 125.46875 190.53125 125.597656 190.324219 125.738281 C 190.121094 125.878906 189.925781 126.03125 189.738281 126.195312 C 189.550781 126.359375 189.375 126.535156 189.210938 126.722656 C 189.046875 126.90625 188.890625 127.101562 188.75 127.308594 C 188.609375 127.511719 188.480469 127.726562 188.363281 127.945312 C 188.25 128.164062 188.148438 128.390625 188.058594 128.625 C 187.96875 128.855469 187.894531 129.09375 187.835938 129.335938 C 187.777344 129.578125 187.730469 129.820312 187.699219 130.066406 C 187.671875 130.316406 187.65625 130.5625 187.65625 130.8125 C 187.65625 130.5625 187.640625 130.3125 187.613281 130.0625 C 187.582031 129.8125 187.539062 129.566406 187.480469 129.324219 C 187.421875 129.082031 187.347656 128.839844 187.257812 128.605469 C 187.167969 128.371094 187.066406 128.144531 186.949219 127.921875 C 186.835938 127.699219 186.707031 127.488281 186.5625 127.28125 C 186.421875 127.074219 186.265625 126.878906 186.101562 126.691406 C 185.933594 126.503906 185.757812 126.328125 185.566406 126.160156 C 185.378906 125.996094 185.183594 125.839844 184.976562 125.699219 C 184.769531 125.558594 184.554688 125.429688 184.332031 125.3125 C 184.109375 125.199219 183.882812 125.097656 183.648438 125.007812 C 183.414062 124.921875 183.171875 124.847656 182.929688 124.789062 C 182.6875 124.730469 182.441406 124.6875 182.191406 124.660156 C 181.941406 124.628906 181.691406 124.617188 181.441406 124.621094 C 181.191406 124.621094 180.941406 124.636719 180.691406 124.671875 C 180.445312 124.703125 180.199219 124.75 179.957031 124.8125 C 179.714844 124.875 179.476562 124.953125 179.242188 125.042969 C 178.582031 125.3125 177.964844 125.648438 177.378906 126.054688 C 172.890625 129.160156 174.828125 134.125 174.828125 134.125 C 174.828125 134.125 171.015625 132.617188 169.191406 137.363281 C 169.003906 137.851562 168.894531 138.355469 168.863281 138.875 C 168.832031 139.398438 168.878906 139.914062 169.011719 140.417969 C 169.140625 140.925781 169.339844 141.402344 169.617188 141.84375 C 169.894531 142.289062 170.230469 142.679688 170.628906 143.019531 C 170.628906 143.019531 164.023438 147.046875 168.6875 153.304688 C 168.6875 153.304688 168.527344 153.742188 168.402344 154.429688 C 168.359375 154.636719 168.332031 154.84375 168.320312 155.050781 C 168.277344 156.019531 168.402344 156.964844 168.699219 157.886719 C 168.996094 158.808594 169.441406 159.648438 170.039062 160.410156 C 171.785156 162.863281 175.238281 162.578125 175.238281 162.578125 C 175.238281 162.578125 175.238281 166.445312 178.492188 168.480469 C 178.730469 168.625 178.976562 168.753906 179.230469 168.867188 C 183.226562 170.578125 187.65625 167.449219 187.65625 163.097656 C 187.65625 167.445312 192.082031 170.546875 196.082031 168.867188 C 196.335938 168.753906 196.582031 168.625 196.820312 168.480469 C 200.078125 166.445312 200.078125 162.578125 200.078125 162.578125 C 200.078125 162.578125 203.53125 162.863281 205.269531 160.410156 C 205.867188 159.648438 206.316406 158.808594 206.613281 157.886719 C 206.90625 156.964844 207.035156 156.019531 206.988281 155.050781 C 206.984375 154.839844 206.957031 154.632812 206.910156 154.429688 Z M 206.910156 154.429688 " fill-opacity="1" fill-rule="nonzero"/><g clip-path="url(#00d72b0eab)"><path fill="#3c3c3b" d="M 181.539062 170.019531 C 180.644531 170.015625 179.789062 169.839844 178.96875 169.488281 C 178.6875 169.363281 178.417969 169.21875 178.15625 169.058594 C 177.164062 168.40625 176.355469 167.574219 175.742188 166.554688 C 175.125 165.539062 174.753906 164.441406 174.636719 163.257812 C 173.449219 163.214844 170.976562 162.867188 169.511719 160.777344 C 167.753906 158.292969 167.234375 155.808594 167.980469 153.40625 C 166.625 151.480469 166.117188 149.550781 166.488281 147.667969 C 166.714844 146.71875 167.09375 145.835938 167.625 145.019531 C 168.160156 144.203125 168.816406 143.5 169.59375 142.914062 C 169.246094 142.523438 168.960938 142.09375 168.730469 141.621094 C 168.503906 141.152344 168.34375 140.660156 168.253906 140.148438 C 168.160156 139.632812 168.140625 139.117188 168.191406 138.597656 C 168.242188 138.078125 168.367188 137.574219 168.558594 137.089844 C 168.796875 136.332031 169.179688 135.652344 169.695312 135.046875 C 170.214844 134.445312 170.832031 133.964844 171.542969 133.613281 C 172.308594 133.285156 173.105469 133.160156 173.933594 133.246094 C 173.769531 132.515625 173.71875 131.78125 173.777344 131.035156 C 173.839844 130.292969 174.007812 129.574219 174.285156 128.882812 C 174.558594 128.1875 174.933594 127.550781 175.402344 126.972656 C 175.871094 126.390625 176.417969 125.894531 177.039062 125.476562 C 177.652344 125.058594 178.304688 124.707031 178.992188 124.429688 C 180.027344 124 181.101562 123.84375 182.214844 123.964844 C 183.328125 124.082031 184.34375 124.457031 185.265625 125.09375 C 186.21875 125.730469 186.96875 126.558594 187.507812 127.570312 C 188.050781 128.582031 188.320312 129.664062 188.320312 130.8125 L 188.320312 163.097656 C 188.324219 164.261719 188.050781 165.359375 187.5 166.382812 C 186.949219 167.410156 186.1875 168.242188 185.214844 168.882812 C 184.105469 169.636719 182.878906 170.015625 181.539062 170.019531 Z M 175.238281 161.925781 C 175.417969 161.925781 175.574219 161.992188 175.703125 162.121094 C 175.832031 162.25 175.898438 162.40625 175.902344 162.589844 C 175.902344 162.589844 175.953125 166.121094 178.84375 167.929688 C 179.042969 168.054688 179.25 168.167969 179.464844 168.265625 C 180.28125 168.613281 181.128906 168.75 182.011719 168.664062 C 182.890625 168.582031 183.699219 168.289062 184.433594 167.792969 C 185.222656 167.273438 185.839844 166.601562 186.289062 165.769531 C 186.738281 164.941406 186.960938 164.054688 186.960938 163.109375 L 186.960938 130.824219 C 186.957031 129.894531 186.734375 129.023438 186.292969 128.203125 C 185.855469 127.386719 185.25 126.71875 184.476562 126.203125 C 183.738281 125.695312 182.921875 125.390625 182.027344 125.296875 C 181.132812 125.203125 180.269531 125.328125 179.441406 125.671875 C 178.855469 125.921875 178.300781 126.230469 177.78125 126.601562 C 173.808594 129.378906 175.398438 133.71875 175.472656 133.898438 C 175.574219 134.167969 175.523438 134.40625 175.316406 134.609375 C 175.113281 134.8125 174.878906 134.863281 174.609375 134.761719 C 174.28125 134.636719 171.324219 133.648438 169.8125 137.585938 C 169.648438 138.007812 169.554688 138.445312 169.527344 138.898438 C 169.5 139.351562 169.542969 139.796875 169.652344 140.234375 C 169.765625 140.675781 169.941406 141.085938 170.179688 141.472656 C 170.417969 141.855469 170.707031 142.195312 171.050781 142.492188 C 171.230469 142.636719 171.3125 142.824219 171.300781 143.054688 C 171.285156 143.285156 171.179688 143.457031 170.984375 143.578125 C 170.984375 143.578125 168.300781 145.253906 167.78125 147.921875 C 167.476562 149.507812 167.96875 151.171875 169.226562 152.890625 C 169.414062 153.160156 169.429688 153.441406 169.269531 153.730469 C 168.605469 155.777344 169.046875 157.90625 170.582031 160.0625 C 172.113281 162.214844 175.152344 161.957031 175.179688 161.925781 Z M 175.238281 161.925781 " fill-opacity="1" fill-rule="nonzero"/></g><path fill="#3c3c3b" d="M 180.097656 137.132812 C 179.011719 137.105469 177.96875 136.871094 176.972656 136.429688 C 175.976562 135.988281 175.105469 135.371094 174.355469 134.582031 C 174.238281 134.441406 174.1875 134.285156 174.203125 134.105469 C 174.214844 133.925781 174.289062 133.773438 174.421875 133.65625 C 174.558594 133.535156 174.714844 133.480469 174.894531 133.488281 C 175.074219 133.496094 175.226562 133.566406 175.347656 133.699219 C 176.007812 134.390625 176.777344 134.917969 177.660156 135.28125 C 178.542969 135.648438 179.460938 135.820312 180.414062 135.796875 C 180.902344 135.789062 181.359375 135.667969 181.785156 135.433594 C 182.210938 135.203125 182.558594 134.882812 182.832031 134.480469 C 182.929688 134.320312 183.070312 134.21875 183.253906 134.175781 C 183.4375 134.132812 183.605469 134.164062 183.765625 134.265625 C 183.921875 134.371094 184.019531 134.515625 184.054688 134.699219 C 184.089844 134.882812 184.050781 135.054688 183.941406 135.207031 C 183.558594 135.785156 183.066406 136.246094 182.460938 136.585938 C 181.859375 136.925781 181.207031 137.109375 180.515625 137.136719 C 180.378906 137.132812 180.234375 137.132812 180.097656 137.132812 Z M 180.097656 137.132812 " fill-opacity="1" fill-rule="nonzero"/><path fill="#3c3c3b" d="M 175.238281 163.253906 C 175.0625 163.25 174.910156 163.191406 174.785156 163.074219 C 174.65625 162.953125 174.585938 162.804688 174.574219 162.632812 C 174.558594 162.445312 174.609375 162.285156 174.730469 162.144531 C 174.855469 162.003906 175.007812 161.929688 175.195312 161.917969 C 175.375 161.917969 179.359375 161.425781 180.863281 155.503906 C 180.914062 155.335938 181.019531 155.210938 181.171875 155.125 C 181.328125 155.039062 181.492188 155.015625 181.660156 155.0625 C 181.832031 155.105469 181.964844 155.199219 182.058594 155.351562 C 182.152344 155.5 182.183594 155.660156 182.148438 155.832031 C 180.402344 162.714844 175.515625 163.222656 175.316406 163.234375 Z M 175.238281 163.253906 " fill-opacity="1" fill-rule="nonzero"/><path fill="#3c3c3b" d="M 168.320312 155.933594 C 168.144531 155.933594 167.996094 155.875 167.867188 155.753906 C 167.742188 155.632812 167.671875 155.484375 167.664062 155.3125 C 167.644531 154.46875 167.835938 153.675781 168.238281 152.933594 C 168.636719 152.191406 169.195312 151.59375 169.910156 151.144531 C 170.0625 151.042969 170.226562 151.007812 170.410156 151.042969 C 170.589844 151.074219 170.730469 151.167969 170.835938 151.320312 C 170.9375 151.472656 170.972656 151.636719 170.9375 151.816406 C 170.90625 152 170.8125 152.140625 170.660156 152.246094 C 170.144531 152.558594 169.738281 152.980469 169.441406 153.503906 C 169.144531 154.03125 168.992188 154.597656 168.984375 155.199219 C 169 155.386719 168.949219 155.550781 168.828125 155.691406 C 168.703125 155.832031 168.550781 155.910156 168.363281 155.921875 Z M 168.320312 155.933594 " fill-opacity="1" fill-rule="nonzero"/><path fill="#3c3c3b" d="M 187.636719 154.933594 C 187.453125 154.933594 187.296875 154.871094 187.167969 154.742188 C 187.039062 154.613281 186.972656 154.457031 186.972656 154.273438 C 186.972656 154.183594 186.921875 151.941406 184.941406 151.332031 C 184.84375 151.320312 184.75 151.289062 184.664062 151.238281 C 184.582031 151.1875 184.511719 151.117188 184.457031 151.035156 C 184.402344 150.953125 184.367188 150.859375 184.351562 150.761719 C 184.339844 150.664062 184.347656 150.566406 184.378906 150.472656 C 184.40625 150.375 184.457031 150.292969 184.523438 150.21875 C 184.59375 150.144531 184.671875 150.089844 184.765625 150.054688 C 184.859375 150.015625 184.953125 150 185.054688 150.007812 C 185.152344 150.015625 185.246094 150.042969 185.332031 150.089844 C 187.675781 150.808594 188.292969 153.15625 188.300781 154.292969 C 188.300781 154.476562 188.234375 154.632812 188.105469 154.761719 C 187.976562 154.894531 187.820312 154.957031 187.636719 154.957031 Z M 187.636719 154.933594 " fill-opacity="1" fill-rule="nonzero"/><path fill="#3c3c3b" d="M 170.628906 143.683594 C 170.4375 143.683594 170.273438 143.613281 170.140625 143.472656 C 170.023438 143.339844 169.964844 143.183594 169.972656 143.003906 C 169.980469 142.828125 170.050781 142.675781 170.175781 142.550781 C 172.003906 141.066406 174.054688 140.03125 176.335938 139.449219 C 176.511719 139.398438 176.679688 139.417969 176.839844 139.507812 C 177 139.597656 177.105469 139.730469 177.15625 139.90625 C 177.207031 140.085938 177.1875 140.253906 177.097656 140.414062 C 177.007812 140.574219 176.875 140.675781 176.695312 140.726562 C 174.636719 141.253906 172.777344 142.179688 171.109375 143.496094 C 170.976562 143.628906 170.816406 143.691406 170.628906 143.683594 Z M 170.628906 143.683594 " fill-opacity="1" fill-rule="nonzero"/><path fill="#3c3c3b" d="M 177.453125 144.203125 C 177.242188 144.203125 177.070312 144.121094 176.9375 143.957031 C 176.410156 143.339844 175.761719 142.894531 174.992188 142.625 C 174.226562 142.355469 173.441406 142.292969 172.640625 142.441406 C 172.464844 142.480469 172.296875 142.453125 172.140625 142.355469 C 171.984375 142.253906 171.886719 142.117188 171.847656 141.9375 C 171.808594 141.757812 171.835938 141.589844 171.933594 141.4375 C 172.03125 141.28125 172.171875 141.183594 172.351562 141.144531 C 172.863281 141.042969 173.378906 141.015625 173.898438 141.054688 C 174.417969 141.09375 174.921875 141.199219 175.414062 141.375 C 175.90625 141.546875 176.363281 141.785156 176.792969 142.082031 C 177.222656 142.378906 177.601562 142.726562 177.9375 143.125 C 178.113281 143.339844 178.140625 143.574219 178.019531 143.824219 C 177.898438 144.078125 177.703125 144.203125 177.421875 144.203125 Z M 177.453125 144.203125 " fill-opacity="1" fill-rule="nonzero"/><path fill="#3c3c3b" d="M 180.054688 159.800781 C 179.777344 159.789062 179.582031 159.652344 179.472656 159.394531 C 179.367188 159.136719 179.402344 158.90625 179.589844 158.695312 C 180.160156 158.148438 180.828125 157.765625 181.589844 157.546875 C 182.347656 157.324219 183.117188 157.296875 183.894531 157.453125 C 184.0625 157.507812 184.1875 157.609375 184.273438 157.765625 C 184.359375 157.917969 184.378906 158.082031 184.335938 158.253906 C 184.292969 158.421875 184.195312 158.554688 184.046875 158.648438 C 183.898438 158.742188 183.738281 158.773438 183.5625 158.738281 C 183.015625 158.628906 182.472656 158.648438 181.933594 158.800781 C 181.398438 158.953125 180.921875 159.21875 180.515625 159.601562 C 180.390625 159.730469 180.234375 159.796875 180.054688 159.800781 Z M 180.054688 159.800781 " fill-opacity="1" fill-rule="nonzero"/><path fill="#3c3c3b" d="M 182.140625 139.449219 C 181.976562 139.449219 181.832031 139.394531 181.707031 139.285156 C 181.582031 139.175781 181.507812 139.039062 181.484375 138.875 C 181.414062 138.445312 181.230469 138.070312 180.921875 137.757812 C 180.613281 137.445312 180.246094 137.25 179.8125 137.175781 C 179.640625 137.132812 179.507812 137.039062 179.410156 136.890625 C 179.3125 136.742188 179.28125 136.578125 179.316406 136.40625 C 179.347656 136.230469 179.4375 136.089844 179.582031 135.988281 C 179.726562 135.886719 179.886719 135.847656 180.0625 135.871094 C 180.410156 135.933594 180.738281 136.046875 181.046875 136.214844 C 181.359375 136.378906 181.636719 136.589844 181.882812 136.84375 C 182.128906 137.09375 182.328125 137.378906 182.484375 137.695312 C 182.644531 138.011719 182.746094 138.34375 182.800781 138.691406 C 182.828125 138.871094 182.785156 139.035156 182.675781 139.183594 C 182.566406 139.328125 182.421875 139.417969 182.242188 139.441406 Z M 182.140625 139.449219 " fill-opacity="1" fill-rule="nonzero"/><g clip-path="url(#44b7c42e1c)"><path fill="#3c3c3b" d="M 193.769531 170.019531 C 192.441406 170.015625 191.222656 169.640625 190.121094 168.898438 C 189.148438 168.253906 188.386719 167.421875 187.839844 166.394531 C 187.289062 165.371094 187.015625 164.273438 187.015625 163.109375 L 187.015625 130.824219 C 187.015625 129.675781 187.285156 128.59375 187.828125 127.582031 C 188.367188 126.570312 189.117188 125.742188 190.070312 125.105469 C 190.988281 124.472656 192.003906 124.09375 193.109375 123.976562 C 194.21875 123.855469 195.289062 124.007812 196.324219 124.429688 C 197.015625 124.714844 197.671875 125.078125 198.285156 125.507812 C 198.90625 125.925781 199.449219 126.421875 199.917969 127.003906 C 200.386719 127.582031 200.761719 128.21875 201.039062 128.914062 C 201.316406 129.605469 201.484375 130.324219 201.542969 131.066406 C 201.605469 131.8125 201.550781 132.546875 201.390625 133.277344 C 202.214844 133.191406 203.011719 133.3125 203.773438 133.644531 C 204.476562 134 205.085938 134.480469 205.59375 135.085938 C 206.105469 135.6875 206.480469 136.367188 206.71875 137.121094 C 206.910156 137.605469 207.03125 138.109375 207.085938 138.628906 C 207.136719 139.148438 207.117188 139.664062 207.027344 140.175781 C 206.933594 140.691406 206.777344 141.183594 206.546875 141.652344 C 206.320312 142.125 206.035156 142.554688 205.6875 142.945312 C 206.464844 143.53125 207.117188 144.234375 207.652344 145.050781 C 208.183594 145.867188 208.566406 146.75 208.789062 147.699219 C 209.15625 149.5625 208.652344 151.511719 207.300781 153.4375 C 208.039062 155.859375 207.523438 158.335938 205.761719 160.808594 C 204.296875 162.867188 201.832031 163.214844 200.644531 163.289062 C 200.523438 164.472656 200.152344 165.570312 199.539062 166.585938 C 198.921875 167.601562 198.117188 168.4375 197.125 169.089844 C 196.859375 169.253906 196.582031 169.394531 196.296875 169.519531 C 195.488281 169.851562 194.648438 170.019531 193.769531 170.019531 Z M 193.769531 125.253906 C 192.671875 125.257812 191.667969 125.570312 190.761719 126.191406 C 189.988281 126.707031 189.382812 127.375 188.941406 128.191406 C 188.503906 129.011719 188.28125 129.882812 188.277344 130.8125 L 188.277344 163.097656 C 188.277344 164.042969 188.5 164.929688 188.949219 165.757812 C 189.398438 166.589844 190.019531 167.261719 190.808594 167.78125 C 191.542969 168.277344 192.351562 168.566406 193.234375 168.652344 C 194.113281 168.734375 194.960938 168.601562 195.777344 168.25 C 195.992188 168.15625 196.199219 168.042969 196.398438 167.914062 C 199.289062 166.109375 199.347656 162.605469 199.347656 162.578125 C 199.34375 162.382812 199.414062 162.21875 199.558594 162.085938 C 199.699219 161.957031 199.867188 161.898438 200.0625 161.910156 C 200.0625 161.910156 203.164062 162.128906 204.660156 160.050781 C 206.15625 157.96875 206.71875 155.753906 206.039062 153.730469 C 205.894531 153.445312 205.914062 153.171875 206.097656 152.910156 C 207.335938 151.214844 207.847656 149.550781 207.542969 147.941406 C 207.019531 145.242188 204.363281 143.59375 204.339844 143.59375 C 204.140625 143.476562 204.035156 143.300781 204.023438 143.066406 C 204.011719 142.839844 204.09375 142.652344 204.269531 142.507812 C 204.617188 142.214844 204.910156 141.878906 205.152344 141.492188 C 205.390625 141.109375 205.566406 140.695312 205.679688 140.253906 C 205.789062 139.816406 205.832031 139.371094 205.804688 138.917969 C 205.773438 138.464844 205.679688 138.027344 205.511719 137.605469 C 203.984375 133.660156 201.035156 134.640625 200.707031 134.765625 C 200.4375 134.867188 200.199219 134.816406 200 134.609375 C 199.78125 134.410156 199.730469 134.175781 199.851562 133.902344 C 199.917969 133.722656 201.527344 129.382812 197.535156 126.609375 C 197 126.230469 196.429688 125.914062 195.828125 125.664062 C 195.175781 125.394531 194.5 125.257812 193.796875 125.253906 Z M 193.769531 125.253906 " fill-opacity="1" fill-rule="nonzero"/></g><path fill="#3c3c3b" d="M 195.21875 137.132812 C 195.074219 137.132812 194.933594 137.132812 194.796875 137.132812 C 194.101562 137.105469 193.453125 136.921875 192.851562 136.582031 C 192.246094 136.242188 191.753906 135.78125 191.375 135.199219 C 191.292969 135.046875 191.273438 134.890625 191.316406 134.722656 C 191.359375 134.554688 191.453125 134.421875 191.597656 134.328125 C 191.742188 134.234375 191.902344 134.203125 192.070312 134.230469 C 192.242188 134.261719 192.378906 134.34375 192.484375 134.480469 C 192.757812 134.886719 193.109375 135.207031 193.539062 135.4375 C 193.972656 135.671875 194.429688 135.792969 194.917969 135.796875 C 195.875 135.820312 196.792969 135.648438 197.675781 135.28125 C 198.554688 134.917969 199.328125 134.390625 199.984375 133.699219 C 200.105469 133.554688 200.261719 133.476562 200.445312 133.464844 C 200.632812 133.449219 200.796875 133.503906 200.9375 133.628906 C 201.074219 133.753906 201.148438 133.910156 201.160156 134.09375 C 201.167969 134.28125 201.109375 134.445312 200.980469 134.582031 C 200.226562 135.371094 199.351562 135.992188 198.355469 136.433594 C 197.355469 136.875 196.308594 137.109375 195.21875 137.132812 Z M 195.21875 137.132812 " fill-opacity="1" fill-rule="nonzero"/><path fill="#3c3c3b" d="M 200.078125 163.253906 L 200.015625 163.253906 C 199.8125 163.253906 194.933594 162.730469 193.1875 155.851562 C 193.140625 155.671875 193.167969 155.503906 193.261719 155.347656 C 193.355469 155.1875 193.492188 155.085938 193.667969 155.042969 C 193.847656 154.996094 194.015625 155.019531 194.171875 155.113281 C 194.332031 155.207031 194.433594 155.34375 194.480469 155.523438 C 195.980469 161.453125 199.972656 161.917969 200.148438 161.9375 C 200.320312 161.960938 200.460938 162.035156 200.570312 162.167969 C 200.679688 162.300781 200.730469 162.453125 200.722656 162.625 C 200.714844 162.800781 200.652344 162.945312 200.527344 163.066406 C 200.40625 163.1875 200.257812 163.253906 200.085938 163.257812 Z M 200.078125 163.253906 " fill-opacity="1" fill-rule="nonzero"/><path fill="#3c3c3b" d="M 206.988281 155.933594 L 206.933594 155.933594 C 206.75 155.917969 206.597656 155.84375 206.476562 155.703125 C 206.355469 155.566406 206.300781 155.402344 206.3125 155.21875 C 206.308594 154.613281 206.15625 154.046875 205.859375 153.523438 C 205.5625 152.996094 205.15625 152.574219 204.644531 152.257812 C 204.492188 152.15625 204.394531 152.015625 204.359375 151.835938 C 204.324219 151.65625 204.359375 151.488281 204.464844 151.339844 C 204.566406 151.1875 204.707031 151.09375 204.886719 151.058594 C 205.070312 151.023438 205.234375 151.054688 205.386719 151.15625 C 206.101562 151.609375 206.660156 152.203125 207.0625 152.945312 C 207.460938 153.6875 207.65625 154.480469 207.640625 155.324219 C 207.625 155.492188 207.554688 155.636719 207.433594 155.753906 C 207.308594 155.867188 207.160156 155.929688 206.988281 155.933594 Z M 206.988281 155.933594 " fill-opacity="1" fill-rule="nonzero"/><path fill="#3c3c3b" d="M 187.675781 154.933594 C 187.492188 154.933594 187.332031 154.867188 187.203125 154.738281 C 187.074219 154.609375 187.007812 154.453125 187.007812 154.269531 C 187.007812 153.132812 187.628906 150.785156 189.984375 150.066406 C 190.140625 150.050781 190.285156 150.085938 190.417969 150.171875 C 190.550781 150.257812 190.640625 150.375 190.6875 150.527344 C 190.734375 150.675781 190.726562 150.824219 190.667969 150.972656 C 190.609375 151.117188 190.511719 151.230469 190.375 151.308594 C 188.386719 151.929688 188.339844 154.15625 188.339844 154.25 C 188.34375 154.4375 188.285156 154.597656 188.152344 154.734375 C 188.019531 154.867188 187.863281 154.933594 187.675781 154.933594 Z M 187.675781 154.933594 " fill-opacity="1" fill-rule="nonzero"/><path fill="#3c3c3b" d="M 204.679688 143.683594 C 204.507812 143.683594 204.359375 143.625 204.234375 143.507812 C 202.566406 142.191406 200.703125 141.269531 198.644531 140.738281 C 198.46875 140.695312 198.332031 140.59375 198.238281 140.433594 C 198.144531 140.277344 198.117188 140.109375 198.164062 139.929688 C 198.210938 139.75 198.3125 139.613281 198.46875 139.519531 C 198.628906 139.425781 198.796875 139.402344 198.972656 139.449219 C 201.253906 140.03125 203.308594 141.066406 205.132812 142.550781 C 205.269531 142.675781 205.339844 142.832031 205.347656 143.011719 C 205.351562 143.195312 205.292969 143.355469 205.171875 143.488281 C 205.035156 143.625 204.871094 143.691406 204.679688 143.683594 Z M 204.679688 143.683594 " fill-opacity="1" fill-rule="nonzero"/><path fill="#3c3c3b" d="M 197.855469 144.203125 C 197.699219 144.203125 197.5625 144.152344 197.441406 144.054688 C 197.300781 143.941406 197.21875 143.792969 197.199219 143.609375 C 197.179688 143.429688 197.226562 143.265625 197.339844 143.125 C 197.679688 142.71875 198.066406 142.367188 198.5 142.070312 C 198.933594 141.769531 199.398438 141.53125 199.894531 141.359375 C 200.390625 141.183594 200.902344 141.078125 201.429688 141.042969 C 201.953125 141.003906 202.476562 141.039062 202.992188 141.144531 C 203.171875 141.183594 203.308594 141.28125 203.410156 141.433594 C 203.507812 141.589844 203.535156 141.753906 203.496094 141.933594 C 203.457031 142.113281 203.359375 142.253906 203.207031 142.351562 C 203.050781 142.449219 202.886719 142.480469 202.707031 142.441406 C 201.90625 142.289062 201.121094 142.347656 200.351562 142.621094 C 199.585938 142.890625 198.9375 143.335938 198.410156 143.957031 C 198.265625 144.132812 198.082031 144.214844 197.855469 144.203125 Z M 197.855469 144.203125 " fill-opacity="1" fill-rule="nonzero"/><path fill="#3c3c3b" d="M 195.261719 159.800781 C 195.082031 159.800781 194.925781 159.738281 194.796875 159.613281 C 194.386719 159.234375 193.914062 158.96875 193.375 158.816406 C 192.835938 158.664062 192.296875 158.640625 191.746094 158.75 C 191.566406 158.796875 191.398438 158.769531 191.242188 158.675781 C 191.082031 158.582031 190.980469 158.445312 190.9375 158.265625 C 190.890625 158.085938 190.917969 157.917969 191.011719 157.757812 C 191.109375 157.601562 191.246094 157.5 191.425781 157.453125 C 192.199219 157.296875 192.96875 157.328125 193.726562 157.546875 C 194.488281 157.765625 195.15625 158.148438 195.726562 158.695312 C 195.855469 158.824219 195.921875 158.980469 195.921875 159.164062 C 195.921875 159.347656 195.855469 159.503906 195.726562 159.632812 C 195.59375 159.75 195.4375 159.804688 195.261719 159.800781 Z M 195.261719 159.800781 " fill-opacity="1" fill-rule="nonzero"/><path fill="#3c3c3b" d="M 193.167969 139.449219 L 193.058594 139.449219 C 192.875 139.421875 192.730469 139.335938 192.617188 139.191406 C 192.507812 139.042969 192.464844 138.878906 192.492188 138.695312 C 192.546875 138.347656 192.652344 138.015625 192.808594 137.699219 C 192.964844 137.382812 193.167969 137.101562 193.414062 136.847656 C 193.660156 136.59375 193.9375 136.386719 194.25 136.21875 C 194.558594 136.054688 194.890625 135.941406 195.238281 135.878906 C 195.421875 135.832031 195.59375 135.863281 195.75 135.964844 C 195.910156 136.070312 196.007812 136.214844 196.042969 136.398438 C 196.078125 136.585938 196.042969 136.757812 195.929688 136.910156 C 195.820312 137.0625 195.671875 137.15625 195.484375 137.183594 C 195.050781 137.257812 194.679688 137.449219 194.375 137.761719 C 194.066406 138.074219 193.875 138.449219 193.808594 138.882812 C 193.785156 139.042969 193.710938 139.175781 193.589844 139.28125 C 193.472656 139.386719 193.328125 139.445312 193.167969 139.449219 Z M 193.167969 139.449219 " fill-opacity="1" fill-rule="nonzero"/></svg>